<svg width="22" height="23" viewBox="0 0 22 23" fill="none" xmlns="http://www.w3.org/2000/svg">
<path d="M12.9433 5.08333L14.6208 6.91667H18.3333V17.9167H3.66659V6.91667H7.37909L9.05659 5.08333H12.9433ZM13.7499 3.25H8.24992L6.57242 5.08333H3.66659C2.65825 5.08333 1.83325 5.90833 1.83325 6.91667V17.9167C1.83325 18.925 2.65825 19.75 3.66659 19.75H18.3333C19.3416 19.75 20.1666 18.925 20.1666 17.9167V6.91667C20.1666 5.90833 19.3416 5.08333 18.3333 5.08333H15.4274L13.7499 3.25ZM10.9999 9.66667C12.5124 9.66667 13.7499 10.9042 13.7499 12.4167C13.7499 13.9292 12.5124 15.1667 10.9999 15.1667C9.48742 15.1667 8.24992 13.9292 8.24992 12.4167C8.24992 10.9042 9.48742 9.66667 10.9999 9.66667ZM10.9999 7.83333C8.46992 7.83333 6.41658 9.88667 6.41658 12.4167C6.41658 14.9467 8.46992 17 10.9999 17C13.5299 17 15.5833 14.9467 15.5833 12.4167C15.5833 9.88667 13.5299 7.83333 10.9999 7.83333Z" fill="#272A37"/>
</svg>
