<svg width="151" height="41" viewBox="0 0 151 41" fill="none" xmlns="http://www.w3.org/2000/svg">
<g clip-path="url(#clip0_4_698)">
<g clip-path="url(#clip1_4_698)">
<path d="M131.3 0.800049H18.7C8.4 0.800049 0 9.20005 0 19.5V20.6C0 30.9001 8.4 39.3 18.7 39.3H131.4C141.7 39.3 150.1 30.9001 150.1 20.6V19.5C150 9.20005 141.6 0.800049 131.3 0.800049Z" fill="#FFD102"/>
<path d="M114.2 20.4001C114.2 28.4001 107.7 34.9001 99.7 34.9001H19.4C11.4 34.9001 4.89999 28.4001 4.89999 20.4001V19.6001C4.89999 11.6001 11.4 5.1001 19.4 5.1001H99.7C107.7 5.1001 114.2 11.6001 114.2 19.6001V20.4001Z" fill="white"/>
<path d="M122.1 22.9C122.1 23.8 121.3 24.5 120.5 24.5C119.6 24.5 118.9 23.7 118.9 22.9C118.9 22 119.6 21.3 120.5 21.3C121.3 21.2 122.1 22 122.1 22.9Z" fill="white"/>
<path d="M131.7 15.3C131.1 15.4 130.4 15.5 129.4 15.5C130.6 16 131.2 16.7 131.2 18C131.2 19.9 129.7 21.2 127.2 21.2C126.8 21.2 126.4 21.2 126.1 21.1C125.9 21.2 125.8 21.4 125.8 21.6C125.8 21.9 125.9 22.2 126.9 22.2H128.4C130.6 22.2 132.1 23.4 132.1 25C132.1 27 130.3 28.2 127 28.2C123.7 28.2 122.7 27.2 122.4 25.7C122.4 25.4 122.6 25.2 122.9 25.2H124.5C124.7 25.2 124.9 25.3 125 25.6C125.1 26.2 125.6 26.4 127.1 26.4C128.8 26.4 129.2 25.9 129.2 25.3C129.2 24.7 128.8 24.4 127.8 24.4H126.4C124.3 24.4 123.4 23.5 123.4 22.5C123.4 21.8 123.9 21.1 124.5 20.7C123.3 20 122.8 19.2 122.8 18C122.8 15.8 124.5 14.5 127 14.5C128.8 14.5 130 14.1 131 13.5C131.3 13.4 131.6 13.5 131.7 13.8L132 14.9C132.2 14.9 132 15.2 131.7 15.3ZM125.6 17.7C125.6 18.8 126.2 19.3 127.1 19.3C128 19.3 128.5 18.7 128.5 17.6C128.5 16.5 128 16 127.1 16C126.2 16.1 125.6 16.8 125.6 17.7Z" fill="white"/>
<path d="M141.3 20.2H135.3C135.5 21.9 136.3 22.4 137.5 22.4C138.1 22.4 138.7 22.2 139.4 21.8C139.6 21.7 139.9 21.7 140.1 21.9L140.7 22.7C140.9 22.9 140.8 23.3 140.6 23.4C139.7 24 138.6 24.4 137.3 24.4C134.1 24.4 132.5 22.3 132.5 19.3C132.5 16.4 134.1 14.1 137 14.1C139.7 14.1 141.4 15.9 141.4 19C141.4 19.5 141.4 19.9 141.3 20.2ZM138.6 18.4C138.6 17.1 138.2 16.2 137 16.2C136 16.2 135.5 16.8 135.4 18.5H138.6V18.4Z" fill="white"/>
<path d="M105.4 24.4C105.5 24.6 105.4 24.9 105.2 25.1C104.5 25.5 103.6 25.7 102.8 25.7C100.5 25.7 99.3 24.4 99.3 21.9V17H98.3C98 17 97.8 16.8 97.8 16.5V15.3C97.8 15 98 14.8 98.3 14.8H99.3V13C99.3 12.7 99.5 12.5 99.8 12.5L101.9 12.3C102.2 12.3 102.4 12.5 102.4 12.8V14.9H104.3C104.6 14.9 104.8 15.2 104.8 15.5L104.6 16.7C104.6 16.9 104.3 17.1 104.1 17.1H102.5V21.9C102.5 22.9 102.8 23.3 103.5 23.3C103.7 23.3 104 23.3 104.2 23.2C104.5 23.1 104.7 23.2 104.8 23.4L105.4 24.4Z" fill="#414042"/>
<path d="M28.2 17.6V24.8C28.2 25.1 28 25.3 27.7 25.3H25.6C25.3 25.3 25.1 25.1 25.1 24.8V18.2C25.1 17.1 24.7 16.8 24.2 16.8C23.6 16.8 23.1 17.3 22.6 18.2V24.9C22.6 25.2 22.3 25.4 22.1 25.4H19.9C19.6 25.4 19.4 25.2 19.4 24.9V18.3C19.4 17.2 19 16.9 18.5 16.9C17.9 16.9 17.4 17.4 16.9 18.3V25C16.9 25.3 16.7 25.5 16.4 25.5H14.2C13.9 25.5 13.7 25.3 13.7 25V15.5C13.7 15.2 14 15 14.2 15H16C16.3 15 16.4 15.2 16.5 15.4L16.7 16.2C17.5 15.1 18.5 14.6 19.7 14.6C20.9 14.6 21.8 15.2 22.2 16.2C23 15.1 24 14.6 25.3 14.6C27.1 14.4 28.2 15.6 28.2 17.6Z" fill="#414042"/>
<path d="M55.4 17.6V24.8C55.4 25.1 55.2 25.3 54.9 25.3H52.8C52.5 25.3 52.3 25.1 52.3 24.8V18.2C52.3 17.1 51.9 16.8 51.4 16.8C50.8 16.8 50.3 17.3 49.8 18.2V24.9C49.8 25.2 49.5 25.4 49.3 25.4H47.1C46.8 25.4 46.6 25.2 46.6 24.9V18.3C46.6 17.2 46.2 16.9 45.7 16.9C45.1 16.9 44.6 17.4 44.1 18.3V25C44.1 25.3 43.9 25.5 43.6 25.5H41.4C41.1 25.5 40.9 25.3 40.9 25V15.5C40.9 15.2 41.2 15 41.4 15H43.2C43.5 15 43.6 15.2 43.7 15.4L44 16C44.8 14.9 45.8 14.4 47 14.4C48.2 14.4 49.1 15 49.5 16C50.3 14.9 51.3 14.4 52.6 14.4C54.3 14.4 55.4 15.6 55.4 17.6Z" fill="#414042"/>
<path d="M36.3 25.3C35.5 27.8 33.9 29.3 30.9 29.6C30.6 29.6 30.4 29.5 30.3 29.2L30.1 28C30.1 27.7 30.2 27.5 30.5 27.5C31.9 27.2 32.7 26.8 33.2 25.9C32.9 25.8 32.4 25.3 32.3 24.9L29.4 15.5C29.3 15.2 29.5 14.8 29.9 14.8H32.1C32.4 14.8 32.5 15 32.6 15.2L34.4 23.3L36.4 15.2C36.4 15 36.7 14.8 36.9 14.8H39C39.3 14.8 39.6 15.1 39.5 15.5L36.3 25.3Z" fill="#414042"/>
<path d="M97.1 19.8C97.1 16.4 95.3 14.4 92.2 14.4C89 14.4 87.3 16.9 87.3 20C87.3 23.3 89.1 25.5 92.6 25.5C94 25.5 95.1 25.1 96 24.5C96 24.5 96.1 24.5 96.1 24.4L96.2 24.3C96.4 24.1 96.5 23.8 96.3 23.6L95.6 22.6C95.3 22.3 95 22.4 95 22.4C94.9 22.5 94.7 22.6 94.6 22.6C94 22.9 93.4 23.1 92.8 23.1C91.5 23.1 90.6 22.6 90.4 20.7H97C97.1 20.6 97.1 20.1 97.1 19.8ZM94 19H90.5C90.6 17.1 91.3 16.4 92.3 16.4C93.5 16.4 94 17.4 94 18.8V19Z" fill="#414042"/>
<path d="M66.8 23.9L66.4 25.2C66.3 25.4 66.1 25.6 65.9 25.5C64.9 25.4 64.2 25 63.8 24C63 25.2 61.9 25.6 60.6 25.6C58.5 25.6 57.2 24.2 57.2 22.3C57.2 20 58.9 18.8 62.1 18.8H63.2V18.3C63.2 17.1 62.7 16.7 61.4 16.7C60.8 16.7 60 16.8 59.1 17.1C58.8 17.2 58.6 17 58.5 16.8L58.1 15.7C58 15.4 58.1 15.2 58.4 15.1C59.6 14.7 60.8 14.5 61.9 14.5C64.9 14.5 66.3 15.8 66.3 18.2V22.3C66.3 22.9 66.4 23.2 66.7 23.4C66.8 23.4 66.9 23.7 66.8 23.9ZM63.1 22.3V20.4H62.3C60.9 20.4 60.2 20.9 60.2 21.9C60.2 22.7 60.7 23.2 61.4 23.2C62.2 23.3 62.8 23 63.1 22.3Z" fill="#414042"/>
<path d="M75.2 14.5C75.1 14.5 75.1 14.5 75.1 14.5C75 14.5 74.8 14.5 74.7 14.5C73.5 14.5 72.5 15.4 72 16.8L71.8 15.5V15.4V15.3C71.8 15 71.5 14.8 71.2 14.8H70.6H70.1H69.4C69.1 14.8 68.9 15 68.9 15.3V15.5V24.5V24.6V24.7C68.9 25 69.1 25.2 69.4 25.2H71.5C71.8 25.2 72 25 72 24.7V24.5V20C72.4 18.4 72.9 17.5 74.2 17.5C74.3 17.5 74.5 17.5 74.6 17.5H74.7C74.9 17.5 75.2 17.3 75.2 17.1L75.5 15.1C75.7 14.7 75.4 14.5 75.2 14.5Z" fill="#414042"/>
<path d="M80.1 10.9V10.8C80.1 10.5 79.8 10.3 79.6 10.3L77.5 10.5C77.2 10.5 77 10.8 77 11V24.4V24.5V24.6C77 24.9 77.2 25.1 77.5 25.1H79.6C79.9 25.1 80.1 24.9 80.1 24.6V24.5V10.9Z" fill="#414042"/>
<path d="M86.6 24.8L83.5 19.4L86.4 15.3V15.2C86.5 15 86.5 14.8 86.2 14.8H83.9C83.6 14.8 83.3 15 83.2 15.2L80.3 19.6L83.1 24.8C83.3 25.1 83.6 25.3 83.9 25.3H86.4C86.6 25.3 86.7 25 86.6 24.8Z" fill="#414042"/>
</g>
</g>
<defs>
<clipPath id="clip0_4_698">
<rect width="150" height="40" fill="white"/>
</clipPath>
<clipPath id="clip1_4_698">
<rect width="150" height="40" fill="white"/>
</clipPath>
</defs>
</svg>
