<svg width="105" height="40" viewBox="0 0 105 40" fill="none" xmlns="http://www.w3.org/2000/svg">
<path d="M2.85144 13.9875C2.80371 14.0247 2.76526 14.0725 2.73911 14.1271C2.71297 14.1817 2.69983 14.2416 2.70075 14.3021V35.8421C2.70075 35.9326 2.73012 36.0207 2.78446 36.0931C2.81569 36.1329 2.85466 36.166 2.89902 36.1904C2.94338 36.2148 2.99223 36.2299 3.0426 36.2349C3.09298 36.2399 3.14384 36.2347 3.19213 36.2195C3.24043 36.2044 3.28514 36.1796 3.32359 36.1467L8.293 31.9264C9.30949 31.0635 10.5993 30.5891 11.933 30.5876H29.0848C29.1358 30.5868 29.1862 30.5759 29.2329 30.5555C29.2797 30.5352 29.3221 30.5059 29.3575 30.4692C29.393 30.4325 29.4209 30.3892 29.4396 30.3418C29.4583 30.2943 29.4674 30.2437 29.4665 30.1927V14.3121C29.4668 14.2514 29.4531 14.1914 29.4263 14.1368C29.3996 14.0823 29.3607 14.0346 29.3125 13.9975L16.3298 3.84999C16.2641 3.79787 16.1826 3.76951 16.0987 3.76951C16.0148 3.76951 15.9334 3.79787 15.8677 3.84999L2.85144 13.9875ZM0.0218248 14.3021C0.0196147 13.816 0.128238 13.3359 0.33944 12.898C0.550642 12.4602 0.858876 12.0762 1.24074 11.7752L14.2469 1.63776C14.7718 1.22463 15.4205 1 16.0887 1C16.7568 1 17.4055 1.22463 17.9304 1.63776L30.94 11.7752C31.3214 12.0764 31.6291 12.4605 31.8397 12.8983C32.0504 13.3362 32.1584 13.8163 32.1555 14.3021V30.1827C32.1699 31.0076 31.8559 31.8045 31.2826 32.3982C30.7093 32.9919 29.9236 33.3338 29.0982 33.3488H11.9464C11.235 33.3502 10.5474 33.6053 10.0075 34.0683L5.02472 38.2953C4.65361 38.6117 4.21121 38.8334 3.73549 38.9413C3.18198 39.0503 2.60923 39.007 2.07841 38.816C1.5476 38.625 1.07867 38.2935 0.721703 37.8569C0.269529 37.2854 0.0251032 36.5774 0.0285287 35.8488C-0.0150038 24.0346 -0.00161576 15.4266 0.0218248 14.3021ZM45.7979 32.251C44.809 32.2771 43.8249 32.1038 42.9044 31.7416C41.9838 31.3793 41.1457 30.8355 40.4401 30.1425C39.7164 29.4201 39.1465 28.5586 38.765 27.6101C38.3834 26.6616 38.198 25.6457 38.2199 24.6236V4.45243C38.2021 3.768 38.4506 3.10332 38.9131 2.59829C39.1263 2.3583 39.3891 2.16754 39.6835 2.03924C39.9778 1.91094 40.2966 1.84818 40.6176 1.85531C40.9581 1.85441 41.2955 1.92111 41.61 2.05156C41.9246 2.182 42.2101 2.37359 42.45 2.61521C42.6898 2.85682 42.8793 3.14363 43.0074 3.45902C43.1354 3.7744 43.1996 4.11208 43.196 4.45243V24.6236C43.196 26.2702 44.0935 27.1739 45.6841 27.1973H45.7979C46.1286 27.1916 46.4569 27.2547 46.7618 27.3826C47.0668 27.5105 47.3418 27.7004 47.5694 27.9403C47.8008 28.1795 47.9818 28.4627 48.1014 28.7732C48.2211 29.0837 48.277 29.4151 48.2659 29.7476C48.2833 30.0778 48.2318 30.408 48.1144 30.7172C47.997 31.0264 47.8165 31.3077 47.5843 31.5432C47.3521 31.7788 47.0733 31.9633 46.7657 32.0852C46.4581 32.2071 46.1285 32.2635 45.7979 32.251V32.251ZM55.0804 7.58171C54.7186 7.58427 54.3603 7.51148 54.0282 7.368C53.6961 7.22452 53.3976 7.01346 53.1516 6.74832C52.8893 6.48471 52.6827 6.17113 52.5441 5.82617C52.4055 5.48121 52.3376 5.11193 52.3445 4.74025C52.343 3.99166 52.6324 3.27171 53.1516 2.73217C53.3992 2.47078 53.6986 2.26378 54.0307 2.12434C54.3628 1.9849 54.7203 1.91608 55.0804 1.92225C55.4402 1.9183 55.797 1.98814 56.1288 2.12744C56.4605 2.26675 56.7602 2.47256 57.0092 2.73217C57.5272 3.27249 57.8164 3.99193 57.8163 4.74025C57.8224 5.11183 57.7542 5.48089 57.6156 5.82574C57.477 6.17059 57.2709 6.48426 57.0092 6.74832C56.7601 7.01039 56.4605 7.21934 56.1284 7.36257C55.7964 7.50579 55.4387 7.58035 55.0771 7.58171H55.0804ZM55.0804 32.4618C54.4082 32.4522 53.7665 32.1799 53.2927 31.7033C52.8189 31.2266 52.5507 30.5835 52.5455 29.9116V12.4513C52.552 11.7719 52.8263 11.1225 53.309 10.644C53.5414 10.4034 53.8197 10.2117 54.1273 10.08C54.435 9.94843 54.7659 9.87962 55.1005 9.87761C55.4299 9.87519 55.7561 9.94219 56.0579 10.0742C56.3597 10.2063 56.6302 10.4004 56.8518 10.644C57.2959 11.1417 57.5425 11.7845 57.545 12.4513V29.9116C57.5522 30.2454 57.4925 30.5772 57.3694 30.8876C57.2463 31.1979 57.0624 31.4806 56.8284 31.7189C56.6047 31.9582 56.3332 32.1479 56.0315 32.2759C55.7299 32.4039 55.4047 32.4672 55.0771 32.4618H55.0804ZM71.2845 32.2744C70.7862 32.2799 70.2975 32.1375 69.8803 31.8652C69.463 31.5929 69.1359 31.2031 68.9405 30.7449L61.8112 13.5189C61.6657 13.189 61.5828 12.8349 61.5668 12.4747C61.5706 11.8039 61.8264 11.1589 62.2833 10.6675C62.5087 10.4162 62.7851 10.2158 63.094 10.0796C63.4029 9.94345 63.7373 9.87459 64.0749 9.87761C64.5593 9.88861 65.0302 10.0387 65.4316 10.3099C65.833 10.5811 66.1479 10.9619 66.3386 11.4071L71.2276 23.6497L76.0899 11.4305C76.2772 10.9764 76.5938 10.5872 77.0003 10.3112C77.4069 10.0351 77.8855 9.8844 78.377 9.87761C78.7151 9.87432 79.0501 9.94304 79.3596 10.0792C79.6691 10.2154 79.946 10.416 80.1719 10.6675C80.6011 11.1631 80.8387 11.7958 80.8416 12.4513C80.8392 12.8262 80.763 13.1969 80.6172 13.5423L73.5315 30.7449C72.9857 31.826 72.2523 32.2744 71.2812 32.2744H71.2845ZM93.5866 32.5087C92.1449 32.5063 90.7188 32.211 89.3948 31.6408C88.0709 31.0707 86.8766 30.2376 85.8847 29.192C83.7926 27.065 82.6243 24.1992 82.6331 21.2166C82.6228 18.2214 83.7808 15.3401 85.8612 13.1843C86.8532 12.1387 88.0474 11.3055 89.3714 10.7354C90.6954 10.1652 92.1215 9.87 93.5631 9.86756C95.0085 9.87459 96.4378 10.1718 97.766 10.7415C99.0942 11.3113 100.294 12.142 101.295 13.1843C103.352 15.3537 104.498 18.2281 104.5 21.2166C104.516 24.1915 103.365 27.0544 101.295 29.192C100.296 30.2294 99.0982 31.0562 97.7737 31.6236C96.4491 32.1909 95.0243 32.4873 93.5832 32.4953L93.5866 32.5087ZM93.5866 27.3613C94.3784 27.361 95.162 27.2004 95.89 26.8892C96.618 26.5781 97.2754 26.1227 97.8226 25.5507C98.9338 24.3789 99.5512 22.8247 99.5468 21.2102C99.5424 19.5958 98.9166 18.0449 97.7992 16.8791C97.2545 16.3149 96.6016 15.8662 95.8796 15.5597C95.1575 15.2532 94.3811 15.0953 93.5966 15.0953C92.8122 15.0953 92.0357 15.2532 91.3137 15.5597C90.5917 15.8662 89.9388 16.3149 89.3941 16.8791C88.2729 18.0444 87.6466 19.5983 87.6466 21.2149C87.6466 22.8316 88.2729 24.3854 89.3941 25.5507C89.9334 26.1201 90.5828 26.5742 91.3028 26.8854C92.0229 27.1966 92.7987 27.3586 93.5832 27.3613H93.5866Z" fill="#1552F5"/>
</svg>
